<svg width="170" height="215" viewBox="0 0 170 215" fill="none" xmlns="http://www.w3.org/2000/svg">
<g clip-path="url(#clip0_16_1706)">
<path d="M156.251 46.1869L53.0479 18.5338C48.2434 17.2465 43.3045 20.0995 42.0166 24.9062L2.3314 173.013C1.04344 177.82 3.89412 182.76 8.69858 184.048L111.901 211.701C116.706 212.988 121.645 210.135 122.933 205.328L162.618 57.2212C163.906 52.4145 161.055 47.4743 156.251 46.1869Z" fill="#FFB827"/>
<path d="M152.726 52.3916L53.4619 25.7939L14.8072 170.055L114.071 196.653L152.726 52.3916Z" fill="#F6F5F5"/>
<path d="M152.725 52.3927C137.682 108.655 121.319 176.986 110.978 190.315C82.4315 185.573 49.6254 177.715 15.1796 168.659L66.4205 29.7331L152.725 52.3927Z" fill="#E4E4E4"/>
<path d="M107.75 184.578C62.5295 179.903 33.4521 172.503 10.4149 164.459C22.1525 132.837 37.8131 79.2736 53.4584 25.8007L105.678 39.917L152.13 55.7112C137.856 111.738 124.11 163.34 107.75 184.578Z" fill="white"/>
<path d="M124.593 60.4335L72.7041 45.2104L70.3844 53.1178L122.273 68.3408L124.593 60.4335Z" fill="#FFECC5"/>
<path d="M129.44 82.6043L82.6367 68.873L81.575 72.4922L128.379 86.2235L129.44 82.6043Z" fill="#FFECC5"/>
<path d="M112.135 86.0989L80.3223 76.7656L79.2606 80.3848L111.073 89.7181L112.135 86.0989Z" fill="#FFDD99"/>
<path d="M67.8312 64.7615L56.751 61.5107L53.499 72.5963L64.5792 75.847L67.8312 64.7615Z" fill="white" stroke="#FFECC5" stroke-width="6" stroke-miterlimit="10"/>
<path d="M57.7842 64.9317C57.775 66.3425 56.9308 72.0356 60.1091 71.2329C60.8424 71.0479 61.6343 70.2509 62.256 69.8364C63.3739 69.0916 64.4926 68.3484 65.6105 67.6036L72.3204 63.1396C72.893 62.7583 71.2889 60.9868 70.5697 61.4656C68.5819 62.788 66.5939 64.1117 64.6061 65.4342C63.6122 66.0954 62.6183 66.7567 61.6244 67.4179C60.9344 67.8769 59.1922 69.4861 58.3618 69.4481C58.752 69.7007 59.1414 69.9519 59.5316 70.2046C59.7674 70.5326 59.6767 68.6281 59.6767 68.5767C59.6821 67.7045 59.6883 66.8339 59.6937 65.9617C59.6985 65.2413 57.792 63.8632 57.7857 64.9308L57.7842 64.9317Z" fill="#E2AE44"/>
<path d="M115.266 100.334L76.7236 89.0264L75.6619 92.6456L114.204 103.953L115.266 100.334Z" fill="#FFECC5"/>
<path d="M121.213 110.649L74.4092 96.9177L73.3475 100.537L120.151 114.268L121.213 110.649Z" fill="#FFDD99"/>
<path d="M61.9181 84.9145L50.8379 81.6638L47.5859 92.7494L58.6661 96.0001L61.9181 84.9145Z" fill="white" stroke="#FFECC5" stroke-width="6" stroke-miterlimit="10"/>
<path d="M51.7803 85.3985C51.7711 86.8093 50.9269 92.5024 54.1052 91.6997C54.8385 91.5147 55.6304 90.7177 56.2521 90.3032C57.37 89.5584 58.4887 88.8151 59.6066 88.0704L66.3165 83.6064C66.8891 83.2251 65.285 81.4536 64.5658 81.9324C62.578 83.2548 60.5899 84.5785 58.6022 85.901C57.6083 86.5622 56.6144 87.2235 55.6205 87.8847C54.9305 88.3437 53.1883 89.9529 52.3579 89.9149C52.7481 90.1675 53.1375 90.4187 53.5277 90.6714C53.7635 90.9994 53.6728 89.0949 53.6728 89.0434C53.6782 88.1713 53.6844 87.3006 53.6898 86.4285C53.6946 85.7081 51.7881 84.33 51.7818 85.3976L51.7803 85.3985Z" fill="#E2AE44"/>
<path d="M117.615 122.912L70.8115 109.181L69.7498 112.8L116.553 126.531L117.615 122.912Z" fill="#FFECC5"/>
<path d="M89.4275 123.213L68.4961 117.072L67.4344 120.691L88.3658 126.832L89.4275 123.213Z" fill="#FFDD99"/>
<path d="M56.008 105.068L44.9277 101.817L41.6757 112.903L52.756 116.154L56.008 105.068Z" fill="white" stroke="#FFECC5" stroke-width="6" stroke-miterlimit="10"/>
<path d="M45.9825 105.737C45.9733 107.148 45.1291 112.841 48.3074 112.038C49.0407 111.853 49.8326 111.056 50.4543 110.642C51.5721 109.897 52.6909 109.154 53.8088 108.409C56.0454 106.921 58.282 105.433 60.5186 103.945C61.0913 103.564 59.4872 101.792 58.768 102.271C56.7802 103.593 54.7921 104.917 52.8043 106.24C51.8104 106.901 50.8165 107.562 49.8226 108.223C49.1326 108.682 47.3904 110.292 46.56 110.254C46.9503 110.506 47.3396 110.757 47.7298 111.01C47.9656 111.338 47.875 109.434 47.875 109.382C47.8803 108.51 47.8865 107.639 47.8919 106.767C47.8968 106.047 45.9903 104.669 45.984 105.736L45.9825 105.737Z" fill="#E2AE44"/>
<path d="M111.704 143.066L64.9004 129.335L63.8387 132.954L110.642 146.685L111.704 143.066Z" fill="#FFECC5"/>
<path d="M99.5593 148.074L62.5859 137.227L61.5242 140.846L98.4976 151.693L99.5593 148.074Z" fill="#FFDD99"/>
<path d="M50.0949 125.222L39.0146 121.971L35.7626 133.057L46.8429 136.308L50.0949 125.222Z" fill="white" stroke="#FFECC5" stroke-width="6" stroke-miterlimit="10"/>
<path d="M40.1094 125.759C40.1002 127.17 39.256 132.863 42.4343 132.061C43.1676 131.875 43.9595 131.079 44.5812 130.664C45.6991 129.919 46.8178 129.176 47.9357 128.431C50.1723 126.943 52.409 125.455 54.6456 123.967C55.2182 123.586 53.6141 121.814 52.8949 122.293C50.9071 123.616 48.919 124.939 46.9313 126.262C45.9374 126.923 44.9435 127.584 43.9496 128.246C43.2596 128.705 41.5174 130.314 40.687 130.276C41.0772 130.528 41.4666 130.78 41.8568 131.032C42.0925 131.36 42.0019 129.456 42.0019 129.404C42.0073 128.532 42.0135 127.661 42.0189 126.789C42.0237 126.069 40.1172 124.691 40.1109 125.758L40.1094 125.759Z" fill="#E2AE44"/>
<path d="M77.5856 154.779L59.0332 149.336L57.9715 152.955L76.5239 158.398L77.5856 154.779Z" fill="#FFECC5"/>
<path d="M103.526 170.957L56.7222 157.228L55.6608 160.847C73.7688 166.157 96.7428 173.229 101.672 173.771C102.61 173.146 103.266 172.246 103.526 170.957Z" fill="#FFDD99"/>
<path d="M44.383 145.269L33.3027 142.018L30.0507 153.103L41.131 156.354L44.383 145.269Z" fill="white" stroke="#FFECC5" stroke-width="6" stroke-miterlimit="10"/>
<path d="M34.2874 145.606C34.2782 147.016 33.4339 152.709 36.6122 151.907C37.3456 151.722 38.1375 150.925 38.7591 150.51C39.877 149.766 40.9958 149.022 42.1136 148.278C44.3503 146.789 46.5869 145.301 48.8235 143.813C49.3961 143.432 47.792 141.661 47.0717 142.139C45.0839 143.462 43.0958 144.785 41.108 146.108C40.1141 146.769 39.1202 147.43 38.1264 148.091C37.4363 148.55 35.6941 150.16 34.8638 150.122C35.254 150.374 35.6433 150.626 36.0335 150.878C36.2693 151.206 36.1787 149.302 36.1787 149.25C36.184 148.378 36.1903 147.507 36.1956 146.635C36.2005 145.915 34.294 144.537 34.2877 145.604L34.2874 145.606Z" fill="#E2AE44"/>
<path d="M126.737 39.353L123.754 50.4875L79.0402 38.5065L82.0236 27.3721C82.4993 25.5967 83.6509 24.1832 85.1246 23.328C85.3086 23.2216 85.4948 23.1259 85.6879 23.0421C87.0448 22.4166 88.621 22.2465 90.1754 22.6631C91.3412 22.9754 92.5318 23.0083 93.663 22.7943C94.1549 22.7001 94.6335 22.5623 95.0986 22.3807C96.6304 21.7769 97.9692 20.6948 98.8853 19.2232C99.8197 17.7214 101.202 16.6258 102.773 16.0274C104.28 15.4574 105.961 15.3455 107.595 15.7834L110.386 16.5311C112.02 16.9689 113.42 17.9063 114.44 19.1538C115.501 20.4572 116.151 22.0973 116.209 23.865C116.267 25.5975 116.885 27.2041 117.91 28.4928C118.222 28.8827 118.567 29.2414 118.946 29.5688C119.819 30.3198 120.866 30.8866 122.032 31.199C123.586 31.6155 124.866 32.5509 125.729 33.771C126.842 35.3294 127.272 37.3575 126.737 39.353Z" fill="#E2AE44"/>
<path d="M128.847 45.9934L126.629 54.2705L74.6581 40.345L76.876 32.0679L80.5046 33.0401L79.0398 38.5067L123.753 50.4876L125.218 45.0211L128.847 45.9934Z" fill="#E4E4E4"/>
<path d="M106.193 26.6023C108.383 27.1892 110.611 25.9767 111.169 23.8941C111.727 21.8115 110.404 19.6475 108.214 19.0606C106.024 18.4738 103.796 19.6863 103.238 21.7689C102.68 23.8515 104.003 26.0155 106.193 26.6023Z" fill="white"/>
</g>
<defs>
<clipPath id="clip0_16_1706">
<rect width="124.856" height="188.127" fill="white" transform="translate(48.6904) rotate(15)"/>
</clipPath>
</defs>
</svg>
