<svg width="200" height="71" viewBox="0 0 200 71" fill="none" xmlns="http://www.w3.org/2000/svg">
<g clip-path="url(#clip0_427_8235)">
<path d="M147.658 38.5845L84.4346 56.9075L94.1528 56.797L177.085 55.7218L190.997 48.7623L147.658 38.5845Z" fill="#BFBFBF"/>
<path d="M147.658 38.5845L140.169 40.7276L190.997 48.7623L147.658 38.5845Z" fill="#E2E2E2"/>
<path d="M158.354 41.7731C162.886 57.1502 133.93 51.4648 133.26 49.1891C132.591 46.9135 154.08 27.2649 158.354 41.7731Z" fill="white"/>
<path d="M136.027 50.6106C140.735 46.6338 148.394 41.2577 156.096 37.9068C149.174 31.7795 132.665 47.1861 133.254 49.1893C133.371 49.6017 134.423 50.1246 136.027 50.6106Z" fill="#E2E2E2"/>
<path d="M157.605 42.2222C158.524 45.3301 158.171 48.1728 156.825 48.5705C155.479 48.9682 153.647 46.7662 152.727 43.6583C151.808 40.5505 152.161 37.7078 153.507 37.3101C154.853 36.9124 156.685 39.1144 157.605 42.2222Z" fill="#004559"/>
<path d="M199.552 9.05991C196.352 2.15933 180.609 5.18616 180.241 4.81793C162.114 -12.8349 86.6707 31.0799 51.145 50.9936L20.7765 25.0704L14.8984 28.6717L21.2767 70.0604L48.6952 69.0294C48.6952 69.0294 184.044 33.7606 195.366 20.5044C199.346 15.8427 200.825 11.8216 199.545 9.05991H199.552Z" fill="#ECECEC"/>
<path d="M199.553 9.0603C198.442 6.67419 195.83 5.47377 192.88 4.91406C154.993 15.1802 47.629 60.9951 47.629 60.9951L31.5545 61.6211L16.8043 27.5085L14.9062 28.6721L21.2845 70.0608L48.7031 69.0298C48.7031 69.0298 184.045 33.761 195.367 20.5048C199.347 15.843 200.825 11.822 199.545 9.0603H199.553Z" fill="#E2E2E2"/>
<path d="M173.878 1.09125C171.913 1.58467 163.711 6.44527 164.535 8.66937C165.13 10.2822 180.19 5.17857 180.3 4.8398C180.41 4.50103 176.018 0.553637 173.878 1.09125Z" fill="#004559"/>
<path d="M141.854 16.7332C141.876 18.1251 140.735 19.274 139.308 19.2887C137.881 19.3108 136.711 18.1914 136.697 16.7995C136.675 15.4076 137.815 14.2587 139.242 14.244C140.669 14.2219 141.839 15.3413 141.854 16.7332Z" fill="#004559"/>
<path d="M128.979 21.2257C129.479 22.3378 128.957 23.634 127.817 24.12C126.677 24.6061 125.352 24.0979 124.852 22.9859C124.352 21.8738 124.874 20.5777 126.014 20.0916C127.155 19.6055 128.479 20.1137 128.979 21.2257Z" fill="#004559"/>
<path d="M116.621 26.4401C117.121 27.5521 116.599 28.8483 115.458 29.3344C114.318 29.8204 112.994 29.3123 112.494 28.2002C111.993 27.0882 112.516 25.792 113.656 25.306C114.796 24.8199 116.121 25.3281 116.621 26.4401Z" fill="#004559"/>
<path d="M69.787 47.9665C70.2137 48.9165 69.7649 50.0212 68.8012 50.4336C67.8301 50.846 66.7045 50.4189 66.2778 49.4688C65.8511 48.5188 66.2999 47.4141 67.2636 47.0017C68.2347 46.5893 69.3603 47.0165 69.787 47.9665Z" fill="#004559"/>
<path d="M60.2382 51.7521C60.6649 52.7021 60.2161 53.8068 59.2524 54.2192C58.2813 54.6317 57.1557 54.2045 56.729 53.2545C56.3023 52.3045 56.7511 51.1998 57.7148 50.7874C58.6859 50.375 59.8115 50.8021 60.2382 51.7521Z" fill="#004559"/>
<path d="M154.648 11.939C154.67 13.5666 153.338 14.8996 151.675 14.9217C150.013 14.9438 148.644 13.6402 148.622 12.02C148.6 10.3925 149.932 9.05948 151.594 9.03739C153.257 9.01529 154.625 10.3188 154.648 11.939Z" fill="#004559"/>
<path d="M147.658 38.5842L11.0655 5.46582L0.000976562 10.6578L84.4341 56.9072L94.1524 56.7967L147.658 38.5842Z" fill="#BFBFBF"/>
<path d="M11.2197 5.37744L137.491 41.2649L147.658 38.5842L11.2197 5.37744Z" fill="#E2E2E2"/>
<path d="M73.2884 61.6129L18.1939 52.2305L14.2139 54.0937L44.5604 70.7228L48.0548 70.6786L87.2883 65.2878L93.615 61.6129H73.2884Z" fill="#BFBFBF"/>
<path d="M194.285 21.5942C148.724 31.0798 47.3413 69.5301 44.9209 70.7157C44.9209 70.7157 170.662 38.5769 194.285 21.5942Z" fill="#004559"/>
<path d="M108.211 34.9974C114.229 55.3972 75.8051 47.8485 74.9149 44.8364C74.0248 41.8243 102.532 15.7465 108.211 34.9974Z" fill="white"/>
<path d="M78.6005 46.7292C84.8464 41.4488 95.006 34.3273 105.225 29.8791C96.0433 21.7486 74.135 42.1926 74.9148 44.8438C75.0767 45.3888 76.4671 46.0811 78.5932 46.7292H78.6005Z" fill="#E2E2E2"/>
<path d="M107.226 35.6013C108.439 39.7255 107.983 43.4961 106.196 44.0264C104.408 44.5566 101.973 41.6403 100.759 37.5088C99.5452 33.3846 100.001 29.614 101.789 29.0837C103.577 28.5535 106.012 31.4698 107.226 35.6013Z" fill="#004559"/>
</g>
<defs>
<clipPath id="clip0_427_8235">
<rect width="200" height="70" fill="white" transform="translate(0.000976562 0.723145)"/>
</clipPath>
</defs>
</svg>
