<svg width="94" height="92" viewBox="0 0 94 92" fill="none" xmlns="http://www.w3.org/2000/svg">
<path d="M24.5533 40.5364C23.9667 39.3311 24.0003 37.9163 24.6435 36.7402L37.4272 13.3655C38.2714 11.8218 39.9995 10.9809 41.7351 11.2689L68.0177 15.6312C69.34 15.8507 70.4742 16.6972 71.0608 17.9025L91.4015 59.6981C92.4016 61.7529 91.5465 64.2294 89.4916 65.2294L50.4254 84.2419C48.3706 85.2419 45.8941 84.3868 44.8941 82.332L24.5533 40.5364Z" fill="#E2AE44"/>
<path d="M45.3122 18.0199C45.3122 19.7338 43.9228 21.1232 42.2088 21.1232C40.4949 21.1232 39.1055 19.7338 39.1055 18.0199C39.1055 16.3059 40.4949 14.9165 42.2088 14.9165C43.9228 14.9165 45.3122 16.3059 45.3122 18.0199Z" fill="#987120"/>
<path d="M4.80852 42.2206C4.48785 40.919 4.81754 39.5428 5.69315 38.5278L23.0962 18.3551C24.2454 17.023 26.1114 16.5632 27.748 17.209L52.5305 26.9881C53.7774 27.4801 54.7087 28.5456 55.0294 29.8472L66.1492 74.98C66.6959 77.1989 65.3403 79.4409 63.1214 79.9875L20.9359 90.3812C18.717 90.9279 16.475 89.5723 15.9283 87.3534L4.80852 42.2206Z" fill="#FFD884"/>
<ellipse cx="26.6922" cy="25.2611" rx="3.10336" ry="3.10336" fill="#E2AE44"/>
<path d="M22.0371 90.1734L36.5195 20.6064L44.2779 23.7098L31.3472 87.8459L22.0371 90.1734Z" fill="#FFCD66"/>
</svg>
